<?xml version="1.0" standalone="no"?>
<!DOCTYPE svg PUBLIC "-//W3C//DTD SVG 20010904//EN"
 "http://www.w3.org/TR/2001/REC-SVG-20010904/DTD/svg10.dtd">
<svg version="1.0" xmlns="http://www.w3.org/2000/svg"
 width="840.000000pt" height="680.000000pt" viewBox="0 0 840.000000 680.000000"
 preserveAspectRatio="xMidYMid meet">

<g transform="translate(0.000000,680.000000) scale(0.100000,-0.100000)"
fill="#000000" stroke="none">
<path d="M3965 6389 c-399 -33 -757 -134 -1115 -315 -297 -150 -517 -311 -766
-559 -244 -243 -407 -466 -553 -755 -196 -386 -296 -752 -323 -1188 -32 -500
69 -1008 291 -1467 165 -340 344 -589 612 -851 482 -470 1077 -753 1754 -836
140 -17 537 -17 675 0 440 54 874 206 1238 433 376 233 738 596 970 969 229
368 379 796 434 1240 19 156 16 564 -6 720 -92 661 -369 1234 -821 1699 -262
270 -499 443 -835 611 -467 234 -1030 342 -1555 299z m420 -80 c721 -49 1368
-342 1875 -849 474 -474 766 -1080 842 -1745 18 -159 15 -512 -6 -668 -105
-808 -512 -1504 -1161 -1989 -700 -524 -1604 -701 -2460 -483 -544 139 -1076
462 -1441 876 -283 320 -472 643 -599 1024 -177 531 -199 1078 -64 1623 96
391 254 724 499 1051 476 636 1210 1060 1985 1145 239 27 327 29 530 15z"/>
<path d="M4010 6150 c-559 -41 -1091 -248 -1530 -596 -120 -95 -371 -351 -463
-471 -311 -409 -504 -890 -558 -1393 -18 -162 -15 -467 6 -625 52 -406 184
-780 391 -1116 200 -324 523 -653 844 -861 491 -319 1104 -481 1668 -439 516
37 956 186 1369 463 285 190 566 473 761 764 617 924 611 2147 -16 3069 -103
152 -168 231 -302 369 -420 432 -924 699 -1510 801 -228 39 -442 50 -660 35z
m154 -194 c24 -18 39 -40 47 -68 28 -107 -40 -188 -158 -188 l-33 0 0 -90 0
-90 -39 0 -39 0 -6 68 c-3 37 -8 140 -12 229 l-6 162 38 4 c22 3 69 4 106 2
55 -2 74 -7 102 -29z m654 -51 c2 -2 0 -19 -3 -39 -8 -39 -16 -42 -75 -27 -92
24 -88 24 -99 -16 -18 -65 -16 -69 47 -82 97 -21 91 -17 80 -59 -6 -20 -11
-38 -13 -40 -1 -2 -33 5 -69 14 -39 10 -71 13 -76 8 -4 -5 -11 -28 -15 -51 -7
-46 -11 -43 88 -63 l59 -12 -7 -36 c-4 -21 -8 -38 -10 -40 -8 -8 -228 44 -232
55 -4 11 21 139 73 374 l15 67 117 -25 c64 -14 118 -27 120 -28z m472 -176
c41 -22 85 -50 97 -61 30 -28 46 -81 38 -124 -13 -69 -98 -133 -161 -121 -22
4 -24 2 -20 -22 16 -79 28 -163 23 -167 -3 -3 -23 4 -45 15 -43 22 -46 30 -58
146 -4 36 -11 65 -15 65 -5 0 -23 -28 -40 -62 -17 -35 -33 -65 -35 -67 -5 -5
-63 20 -70 30 -6 10 193 409 204 409 4 0 41 -19 82 -41z m-2172 6 c17 -38 15
-44 -22 -62 l-35 -16 85 -168 84 -169 -37 -19 -38 -19 -84 162 c-46 88 -85
163 -87 165 -3 3 -21 -3 -40 -13 -20 -9 -38 -16 -39 -14 -1 2 -10 17 -19 35
l-16 32 103 55 c56 30 109 56 118 56 9 0 21 -11 27 -25z m-457 -387 c144 -161
152 -173 147 -239 -5 -67 -33 -111 -91 -140 -54 -28 -123 -22 -165 13 -43 36
-222 240 -221 253 0 5 13 20 29 33 l28 22 112 -125 c65 -74 121 -127 135 -131
47 -12 103 45 91 91 -5 19 -96 131 -194 238 l-26 27 29 30 c16 17 30 30 31 30
2 0 44 -46 95 -102z m3197 1 l92 -80 -22 -30 c-26 -35 -29 -35 -66 -4 l-29 24
-122 -139 c-129 -148 -131 -149 -173 -103 -16 18 -12 25 102 156 66 75 120
141 120 146 0 5 -11 18 -25 29 -14 11 -25 23 -25 28 0 9 41 54 49 54 4 0 48
-36 99 -81z m-1649 -26 c151 -114 262 -271 297 -420 39 -164 -23 -383 -155
-556 -28 -37 -51 -70 -51 -75 0 -6 11 -17 25 -26 26 -17 26 -16 93 45 205 188
460 247 792 184 98 -19 266 -71 275 -85 13 -21 -62 -137 -135 -210 -87 -88
-187 -145 -323 -184 -167 -49 -371 -53 -517 -10 -107 31 -96 34 -135 -47 -41
-88 -79 -215 -100 -339 -22 -125 -45 -351 -45 -438 l0 -73 33 3 c32 3 32 3 38
68 14 142 63 283 135 392 78 116 171 184 324 234 78 25 98 28 250 28 125 1
182 -3 237 -16 91 -23 202 -62 276 -100 67 -33 67 -28 7 -149 -98 -195 -277
-406 -429 -504 -148 -96 -464 -230 -612 -259 l-25 -5 -13 -193 c-6 -106 -15
-214 -18 -240 l-6 -48 -63 0 -64 0 0 235 0 235 -24 0 -24 0 -7 -197 c-4 -109
-10 -247 -14 -308 l-6 -110 -62 -3 c-76 -4 -70 -21 -78 228 -3 102 -8 231 -11
288 -7 101 -7 102 -32 102 l-25 0 7 -235 7 -235 -70 0 c-69 0 -71 1 -71 25 0
48 -32 450 -36 454 -2 2 -43 14 -92 26 -161 41 -394 146 -542 243 -182 121
-369 356 -465 584 l-15 38 60 30 c83 42 217 85 325 106 109 20 317 15 410 -11
227 -62 373 -209 448 -450 21 -66 47 -204 47 -246 0 -5 14 -9 32 -9 l31 0 -6
143 c-14 307 -90 659 -165 755 l-19 24 -68 -21 c-153 -47 -337 -48 -520 -1
-156 40 -296 124 -385 231 -55 65 -104 154 -95 169 3 5 47 23 98 39 256 82
523 92 703 27 90 -33 195 -98 269 -168 64 -59 65 -60 90 -44 14 9 25 22 25 29
-1 6 -23 41 -51 77 -60 78 -121 201 -145 290 -26 101 -23 239 8 322 32 86 80
165 142 235 57 64 164 152 185 153 8 0 30 -12 50 -27z m-2080 -392 l24 -18
-22 -36 -22 -36 150 -101 c83 -55 151 -105 151 -111 0 -6 -9 -24 -21 -40 l-20
-29 -153 105 -153 104 -29 -35 -29 -35 -30 25 -30 24 68 101 c37 55 73 101 80
101 6 0 23 -9 36 -19z m4180 -102 c14 -26 12 -31 -120 -227 -74 -111 -138
-200 -143 -199 -5 2 -18 19 -29 38 l-20 35 31 46 c18 26 32 52 32 58 0 7 -19
39 -42 72 -36 51 -46 59 -68 55 -104 -21 -96 -22 -123 20 -16 24 -20 40 -13
42 26 10 443 89 461 88 10 -1 26 -14 34 -28z m-4301 -495 c116 -47 192 -83
192 -91 0 -8 -7 -27 -15 -42 l-14 -29 -208 86 c-114 47 -209 86 -211 87 -2 2
4 20 12 40 12 28 21 36 34 33 10 -3 105 -41 210 -84z m4591 -84 c7 -23 9 -49
6 -58 -3 -9 -59 -71 -125 -137 -65 -66 -118 -121 -116 -122 1 -1 65 15 142 37
76 22 144 40 150 40 6 0 16 -18 22 -40 10 -39 9 -40 -22 -49 -258 -74 -400
-111 -407 -104 -4 4 -12 24 -17 44 l-10 36 129 136 c113 118 125 135 97 126
-18 -5 -82 -23 -143 -40 -60 -18 -115 -34 -122 -36 -11 -4 -41 72 -32 81 4 4
416 124 430 126 3 0 11 -18 18 -40z m-4891 -259 c9 -6 11 -19 7 -44 -8 -42
-21 -37 175 -72 209 -36 189 -29 180 -71 -5 -19 -11 -38 -14 -41 -3 -3 -83 8
-178 26 -96 17 -177 31 -181 31 -4 0 -10 -18 -13 -40 -7 -43 -7 -43 -53 -34
-40 8 -40 23 5 232 3 16 11 22 32 22 15 0 33 -4 40 -9z m5023 -505 l4 -43
-119 -7 c-66 -3 -167 -6 -226 -6 l-107 0 -6 37 c-4 20 -4 39 -1 42 2 3 89 8
192 11 103 4 203 7 223 8 37 2 37 2 40 -42z m-4753 -76 c86 -53 81 -209 -7
-255 -43 -22 -61 -19 -61 9 0 13 -3 31 -6 40 -4 10 5 20 25 31 26 13 31 22 31
50 0 26 -6 39 -26 52 -41 26 -71 3 -99 -74 -26 -72 -37 -89 -76 -109 -35 -18
-70 -18 -114 0 -69 29 -96 126 -55 194 19 31 84 72 96 60 3 -4 8 -24 11 -45 4
-33 2 -39 -19 -48 -44 -19 -31 -85 17 -85 29 0 38 13 60 80 10 31 32 69 51 88
28 28 38 32 86 32 36 0 64 -7 86 -20z m4510 -395 c193 -136 193 -137 186 -168
-3 -18 -7 -32 -8 -33 -2 -2 -473 -84 -480 -84 -9 0 4 72 14 84 5 5 34 14 66
20 l58 12 17 77 17 78 -53 35 c-52 35 -53 36 -44 72 5 20 9 41 9 46 0 15 22 1
218 -139z m-4384 -166 c19 -48 30 -29 -110 -189 -55 -63 -103 -120 -107 -127
-4 -6 59 10 140 38 81 27 151 45 155 41 5 -5 12 -22 17 -39 11 -36 31 -26
-248 -121 l-173 -59 -14 33 c-8 18 -14 41 -14 50 0 9 48 71 107 138 59 66 113
129 122 139 10 12 -29 2 -142 -37 l-155 -55 -11 31 c-6 17 -11 37 -11 43 0 7
80 39 188 75 103 35 194 67 202 71 28 15 38 9 54 -32z m4201 -480 c88 -51 162
-94 165 -96 2 -2 -7 -25 -20 -50 l-24 -46 -186 7 c-120 5 -181 4 -175 -3 6 -5
66 -42 135 -82 69 -39 126 -73 128 -75 5 -3 -26 -62 -37 -68 -10 -7 -384 209
-389 224 -2 6 6 26 18 45 l21 35 185 2 185 3 -135 78 c-75 44 -136 81 -136 84
0 3 9 21 21 40 l21 33 31 -18 c18 -11 104 -61 192 -113z m-3925 -125 c13 -20
19 -39 14 -43 -5 -5 -90 -61 -189 -126 l-179 -117 -23 28 c-13 16 -23 34 -23
39 0 7 363 253 377 255 1 0 11 -16 23 -36z m1460 -170 c30 -8 110 -42 177 -75
l121 -61 134 65 c73 36 158 71 188 78 96 22 201 14 352 -25 166 -43 277 -48
379 -16 35 10 66 17 69 14 3 -3 21 -49 42 -102 l36 -97 -21 -11 c-99 -52 -359
-57 -522 -10 -49 15 -128 29 -175 33 -136 9 -174 -6 -378 -152 -98 -69 -128
-64 -276 49 -102 78 -150 98 -252 104 -70 4 -99 0 -205 -29 -115 -31 -135 -33
-279 -34 -120 0 -167 4 -210 17 -87 28 -85 22 -43 136 34 91 40 102 58 96 146
-46 244 -46 405 -3 189 51 277 56 400 23z m-664 -592 c26 -24 34 -41 34 -67 0
-48 -18 -83 -52 -97 -19 -9 -26 -18 -22 -28 35 -83 -15 -160 -105 -160 -35 0
-63 10 -119 41 -40 22 -71 43 -69 47 2 4 48 85 102 179 l97 173 51 -28 c27
-15 65 -42 83 -60z m2034 -58 c61 -37 82 -130 41 -185 -12 -16 -20 -33 -17
-37 2 -4 36 -23 75 -42 39 -18 71 -37 71 -40 0 -4 -18 -15 -39 -25 -38 -17
-41 -17 -73 2 -18 11 -55 32 -81 47 l-48 27 30 -60 c17 -33 31 -65 31 -70 0
-11 -59 -45 -66 -39 -8 9 -175 360 -172 363 2 2 37 20 78 39 82 39 127 45 170
20z m-1568 -122 c172 -118 87 -385 -123 -385 -172 -1 -271 195 -171 337 42 60
102 88 182 84 53 -3 73 -9 112 -36z m1136 -53 c50 -25 97 -84 113 -143 37
-136 -100 -285 -239 -260 -113 21 -182 101 -182 214 0 154 167 257 308 189z
m-599 -31 c44 -16 121 -93 121 -121 0 -14 -93 1 -105 16 -23 30 -62 47 -107
47 -89 0 -151 -86 -127 -175 28 -100 144 -135 222 -67 28 24 20 32 -32 32 -27
0 -63 3 -80 6 -29 6 -32 10 -29 38 l3 31 80 -2 c44 -2 104 -5 133 -9 49 -5 52
-7 52 -33 0 -47 -52 -115 -111 -145 -96 -47 -199 -29 -267 49 -43 48 -52 73
-52 144 0 147 152 244 299 189z"/>
<path d="M4023 5903 c-9 -3 -13 -26 -13 -65 l0 -61 42 7 c65 11 96 52 70 93
-14 23 -71 38 -99 26z"/>
<path d="M5217 5604 c-15 -30 -27 -58 -27 -63 0 -5 20 -17 45 -26 41 -16 46
-16 70 -1 52 34 41 92 -24 125 l-38 20 -26 -55z"/>
<path d="M4120 5008 c-37 -84 -70 -205 -70 -257 0 -57 26 -144 69 -228 l39
-78 32 69 c39 85 70 203 70 265 0 26 -7 74 -15 106 -17 66 -74 195 -85 195 -4
0 -22 -33 -40 -72z"/>
<path d="M3106 4341 c-7 -11 18 -27 104 -71 87 -44 183 -76 273 -90 76 -13
220 -11 233 3 14 14 -61 79 -131 112 -38 18 -97 38 -129 44 -72 13 -343 15
-350 2z"/>
<path d="M4910 4343 c-78 -13 -171 -56 -236 -110 -28 -23 -41 -40 -35 -46 16
-16 135 -20 223 -8 111 16 247 63 333 114 69 41 70 41 40 48 -33 7 -285 9
-325 2z"/>
<path d="M4132 4129 l-44 -48 42 -93 c23 -51 44 -95 46 -97 2 -2 24 41 49 95
l46 98 -48 46 -48 47 -43 -48z"/>
<path d="M3001 3612 c-11 -8 -10 -15 7 -39 64 -90 208 -192 418 -294 137 -67
331 -139 373 -139 l21 0 -20 51 c-79 199 -264 343 -522 404 -79 19 -258 30
-277 17z"/>
<path d="M5195 3613 c-315 -40 -544 -193 -635 -422 l-20 -51 21 0 c43 0 238
73 374 139 206 101 354 205 416 293 18 25 19 32 8 39 -14 9 -105 10 -164 2z"/>
<path d="M6113 4747 c-24 -5 -43 -13 -43 -16 0 -12 40 -71 48 -71 4 0 25 23
45 50 35 47 36 50 15 49 -13 -1 -42 -6 -65 -12z"/>
<path d="M6422 2908 c-5 -24 -7 -45 -6 -46 1 -2 33 -1 70 3 l67 8 -24 18 c-13
10 -41 27 -61 39 l-37 21 -9 -43z"/>
<path d="M3047 1425 c-16 -33 -16 -35 3 -45 36 -19 69 -12 76 17 6 20 2 31
-16 45 -32 26 -44 23 -63 -17z"/>
<path d="M2970 1288 c-28 -46 -25 -57 16 -74 32 -14 38 -13 60 1 38 24 30 66
-17 90 -37 20 -36 20 -59 -17z"/>
<path d="M5087 1344 l-27 -15 25 -49 c14 -28 32 -50 39 -50 22 0 76 49 76 69
0 53 -56 76 -113 45z"/>
<path d="M3460 1252 c-22 -12 -43 -35 -59 -65 -29 -59 -23 -104 22 -154 84
-90 231 -28 231 98 0 75 -46 126 -121 135 -26 4 -50 -1 -73 -14z"/>
<path d="M4621 1183 c-45 -22 -71 -67 -71 -123 0 -156 212 -191 261 -43 21 63
-16 143 -77 169 -43 18 -71 17 -113 -3z"/>
</g>
</svg>
